HIERARCHY
ROOT Hips
{
	OFFSET 0.000000 0.000000 0.000000
	CHANNELS 6 Xposition Yposition Zposition Zrotation Yrotation Xrotation
	JOINT Chest
	{
		OFFSET 0.000000 1.100000 0.000000
		CHANNELS 3 Zrotation Yrotation Xrotation
		JOINT Chest2
		{
			OFFSET 0.000000 1.400000 0.000000
			CHANNELS 3 Zrotation Yrotation Xrotation
			JOINT Neck
			{
				OFFSET 0.000000 0.700000 0.000000
				CHANNELS 3 Zrotation Yrotation Xrotation
				JOINT Head
				{
					OFFSET -0.000000 0.689763 -0.018091
					CHANNELS 3 Zrotation Yrotation Xrotation
					End Site
					{
						OFFSET 0.000000 0.000072 1.636200
					}
				}
			}
			JOINT LeftCollar
			{
				OFFSET -0.000000 0.200000 -0.180000
				CHANNELS 3 Zrotation Yrotation Xrotation
				JOINT LeftShoulder
				{
					OFFSET 1.099722 0.024755 -0.000000
					CHANNELS 3 Zrotation Yrotation Xrotation
					JOINT LeftElbow
					{
						OFFSET 1.464754 0.249007 -0.206134
						CHANNELS 3 Zrotation Yrotation Xrotation
						JOINT LeftWrist
						{
							OFFSET 1.464754 0.249007 0.206134
							CHANNELS 3 Zrotation Yrotation Xrotation
							End Site
							{
								OFFSET 0.976503 0.166005 0.137423
							}
						}
					}
				}
			}
			JOINT RightCollar
			{
				OFFSET -0.000000 0.200000 -0.180000
				CHANNELS 3 Zrotation Yrotation Xrotation
				JOINT RightShoulder
				{
					OFFSET -1.099722 0.024755 0.000000
					CHANNELS 3 Zrotation Yrotation Xrotation
					JOINT RightElbow
					{
						OFFSET -1.464754 0.249007 -0.206134
						CHANNELS 3 Zrotation Yrotation Xrotation
						JOINT RightWrist
						{
							OFFSET -1.464754 0.249007 0.206134
							CHANNELS 3 Zrotation Yrotation Xrotation
							End Site
							{
								OFFSET -0.976503 0.166005 0.137423
							}
						}
					}
				}
			}
		}
	}
	JOINT LeftHip
	{
		OFFSET 0.600000 -0.010000 -0.020000
		CHANNELS 3 Zrotation Yrotation Xrotation
		JOINT LeftKnee
		{
			OFFSET 0.000000 -2.179780 0.297593
			CHANNELS 3 Zrotation Yrotation Xrotation
			JOINT LeftAnkle
			{
				OFFSET -0.000000 -2.179780 -0.297593
				CHANNELS 3 Zrotation Yrotation Xrotation
				End Site
				{
					OFFSET 0.000000 0.000000 1.000000
				}
			}
		}
	}
	JOINT RightHip
	{
		OFFSET -0.600000 -0.010000 -0.020000
		CHANNELS 3 Zrotation Yrotation Xrotation
		JOINT RightKnee
		{
			OFFSET 0.000000 -2.179780 0.297593
			CHANNELS 3 Zrotation Yrotation Xrotation
			JOINT RightAnkle
			{
				OFFSET -0.000000 -2.179780 -0.297593
				CHANNELS 3 Zrotation Yrotation Xrotation
				End Site
				{
					OFFSET 0.000000 0.000000 1.000000
				}
			}
		}
	}
}
MOTION
Frames: 13
Frame Time: 0.016667
0.000000 0.000000 0.000000 0.000000 -0.000000 0.000000 -0.000000 0.000000 54.330856 -0.000000 -0.000000 -0.000002 -0.000000 0.000000 0.000000 -0.000000 -0.000000 21.860830 0.000000 0.000000 -0.000003 -67.172875 -53.821863 47.202625 2.748533 -43.875786 -6.817456 -22.421653 0.000003 0.000004 -0.000000 0.000000 -0.000003 68.710030 54.754444 49.879181 -1.798546 44.170878 -4.430727 24.268799 -0.000007 0.000002 0.000000 0.000000 0.000001 0.000000 0.000000 0.000001 -0.000000 0.000000 0.000000 -0.000000 0.000000 0.000000 -0.000000 0.000000 -0.000000 -0.000000 0.000000 0.000000 
0.000000 0.000000 0.000000 0.000000 -0.000000 0.000000 -0.000000 0.000000 54.330856 -0.000000 -0.000000 -0.000002 -0.000000 0.000000 0.000000 -0.000000 -0.000000 21.860830 0.000000 0.000000 -0.000003 -67.172875 -53.821863 47.202625 2.748533 -43.875786 -6.817456 -22.421653 0.000003 0.000004 -0.000000 0.000000 -0.000003 68.710030 54.754444 49.879181 -1.798546 44.170878 -4.430727 24.268799 -0.000007 0.000002 0.000000 0.000000 0.000001 0.000000 0.000000 0.000001 -0.000000 0.000000 0.000000 -0.000000 0.000000 0.000000 -0.000000 0.000000 -0.000000 -0.000000 0.000000 0.000000 
0.000000 0.000000 0.000000 0.000000 -0.000000 0.000000 -0.000000 0.000000 54.330856 -0.000000 -0.000000 -0.000002 -0.000000 0.000000 0.000000 -0.000000 -0.000000 21.860830 0.000000 0.000000 -0.000003 -67.172875 -53.821863 47.202625 2.748533 -43.875786 -6.817456 -22.421653 0.000003 0.000004 -0.000000 0.000000 -0.000003 68.710030 54.754444 49.879181 -1.798546 44.170878 -4.430727 24.268799 -0.000007 0.000002 0.000000 0.000000 0.000001 0.000000 0.000000 0.000001 -0.000000 0.000000 0.000000 -0.000000 0.000000 0.000000 -0.000000 0.000000 -0.000000 -0.000000 0.000000 0.000000 
0.000000 0.000000 0.000000 0.000000 -0.000000 0.000000 -0.000000 0.000000 54.330856 -0.000000 -0.000000 -0.000002 -0.000000 0.000000 0.000000 -0.000000 -0.000000 21.860830 0.000000 0.000000 -0.000003 -67.172875 -53.821863 47.202625 2.748533 -43.875786 -6.817456 -22.421653 0.000003 0.000004 -0.000000 0.000000 -0.000003 68.710030 54.754444 49.879181 -1.798546 44.170878 -4.430727 24.268799 -0.000007 0.000002 0.000000 0.000000 0.000001 0.000000 0.000000 0.000001 -0.000000 0.000000 0.000000 -0.000000 0.000000 0.000000 -0.000000 0.000000 -0.000000 -0.000000 0.000000 0.000000 
0.000000 0.000000 0.000000 0.000000 -0.000000 0.000000 -0.000000 0.000000 54.330856 -0.000000 -0.000000 -0.000002 -0.000000 0.000000 0.000000 -0.000000 -0.000000 21.860830 0.000000 0.000000 -0.000003 -67.172875 -53.821863 47.202625 2.748533 -43.875786 -6.817456 -22.421653 0.000003 0.000004 -0.000000 0.000000 -0.000003 68.710030 54.754444 49.879181 -1.798546 44.170878 -4.430727 24.268799 -0.000007 0.000002 0.000000 0.000000 0.000001 0.000000 0.000000 0.000001 -0.000000 0.000000 0.000000 -0.000000 0.000000 0.000000 -0.000000 0.000000 -0.000000 -0.000000 0.000000 0.000000 
0.000000 0.000000 0.000000 0.000000 -0.000000 0.000000 -0.000000 0.000000 54.277625 -0.000000 -0.000000 -0.000000 -0.000000 -0.000000 0.000002 0.000000 0.000000 21.839404 -0.000000 0.000000 -0.000002 -67.122899 -53.768533 47.139951 2.745975 -43.834146 -6.806386 -22.421648 0.000004 0.000005 -0.000000 0.000000 -0.000002 68.653435 54.701073 49.810094 -1.797607 44.128558 -4.422920 24.268798 -0.000004 0.000000 0.000000 0.000000 0.000001 0.000000 0.000000 0.000001 -0.000000 0.000000 0.000000 -0.000000 0.000000 0.000000 -0.000000 0.000000 -0.000000 -0.000000 0.000000 0.000000 
0.000000 0.000000 0.000000 0.000000 -0.000000 0.000000 -0.000000 0.000000 54.120551 -0.000000 0.000000 0.000003 -0.000000 -0.000000 -0.000002 0.000000 0.000000 21.776207 0.000000 -0.000000 -0.000003 -66.976596 -53.610903 46.955863 2.738431 -43.711261 -6.773750 -22.421657 -0.000001 0.000006 -0.000000 0.000000 0.000002 68.487734 54.543268 49.607203 -1.794844 44.003682 -4.399937 24.268801 -0.000005 -0.000001 0.000000 0.000000 0.000001 0.000000 0.000000 0.000001 -0.000000 0.000000 0.000000 -0.000000 0.000000 0.000000 -0.000000 0.000000 -0.000000 -0.000000 0.000000 0.000000 
0.000000 0.000000 0.000000 0.000000 -0.000000 0.000000 -0.000000 0.000000 53.863555 -0.000000 0.000000 0.000003 -0.000000 -0.000000 0.000002 0.000000 0.000000 21.672795 0.000000 0.000000 -0.000003 -66.740934 -53.352172 46.657278 2.726147 -43.510139 -6.720563 -22.421650 -0.000000 0.000006 -0.000000 -0.000000 -0.000000 68.220811 54.284079 49.278264 -1.790329 43.799309 -4.362442 24.268798 -0.000009 -0.000001 0.000000 0.000000 0.000001 0.000000 0.000000 0.000001 -0.000000 0.000000 0.000000 -0.000000 0.000000 0.000000 -0.000000 0.000000 -0.000000 -0.000000 0.000000 0.000000 
0.000000 0.000000 0.000000 0.000000 -0.000000 0.000000 -0.000000 0.000000 53.510550 -0.000000 -0.000000 -0.000000 0.000000 0.000000 -0.000000 0.000000 0.000000 21.530758 0.000000 -0.000000 -0.000002 -66.424676 -52.995171 46.252374 2.709376 -43.233762 -6.647873 -22.421652 -0.000005 0.000002 -0.000000 0.000000 -0.000002 67.862547 53.926157 48.832543 -1.784133 43.518506 -4.311216 24.268803 -0.000004 -0.000002 0.000000 0.000000 0.000001 0.000000 0.000000 0.000001 -0.000000 0.000000 0.000000 -0.000000 0.000000 0.000000 -0.000000 0.000000 -0.000000 -0.000000 0.000000 0.000000 
0.000000 0.000000 0.000000 0.000000 -0.000000 0.000000 -0.000000 0.000000 53.065451 -0.000000 0.000000 0.000003 0.000000 -0.000000 -0.000002 0.000000 0.000000 21.351667 0.000000 -0.000000 -0.000002 -66.037944 -52.542466 45.750250 2.688400 -42.885098 -6.556855 -22.421650 0.000001 0.000003 0.000000 0.000000 -0.000002 67.424335 53.471782 48.280247 -1.776335 43.164320 -4.247065 24.268801 -0.000003 -0.000003 0.000000 0.000000 0.000001 0.000000 0.000000 0.000001 -0.000000 0.000000 0.000000 -0.000000 0.000000 0.000000 -0.000000 0.000000 -0.000000 -0.000000 0.000000 0.000000 
0.000000 0.000000 0.000000 0.000000 -0.000000 0.000000 -0.000000 0.000000 52.532180 -0.000000 0.000000 -0.000000 -0.000000 0.000000 0.000000 0.000000 0.000000 21.137096 0.000000 -0.000000 -0.000002 -65.591912 -51.996430 45.160504 2.663510 -42.467080 -6.448720 -22.421652 0.000000 0.000003 -0.000000 -0.000000 -0.000000 66.918765 52.923072 47.632370 -1.766997 42.739758 -4.170850 24.268801 -0.000004 -0.000001 0.000000 0.000000 0.000001 0.000000 0.000000 0.000001 -0.000000 0.000000 0.000000 -0.000000 0.000000 0.000000 -0.000000 0.000000 -0.000000 -0.000000 0.000000 0.000000 
0.000000 0.000000 0.000000 0.000000 -0.000000 0.000000 -0.000000 0.000000 51.914663 -0.000000 -0.000000 -0.000002 0.000000 0.000000 -0.000000 0.000000 0.000000 20.888633 0.000000 -0.000000 -0.000002 -65.098260 -51.359433 44.493037 2.634993 -41.982618 -6.324707 -22.421650 -0.000006 0.000003 -0.000000 0.000000 0.000000 66.359017 52.282069 46.900133 -1.756202 42.247831 -4.083486 24.268803 -0.000005 -0.000004 0.000000 0.000000 0.000001 0.000000 0.000000 0.000001 -0.000000 0.000000 0.000000 -0.000000 0.000000 0.000000 -0.000000 0.000000 -0.000000 -0.000000 0.000000 0.000000 
0.000000 0.000000 0.000000 0.000000 -0.000000 0.000000 -0.000000 0.000000 51.216812 -0.000000 0.000000 0.000002 0.000000 -0.000000 0.000000 0.000000 0.000000 20.607840 0.000000 -0.000000 -0.000002 -64.569009 -50.633835 43.757685 2.603132 -41.434646 -6.186128 -22.421653 0.000000 0.000001 -0.000000 -0.000000 -0.000002 65.758589 51.550843 46.094703 -1.743996 41.691540 -3.985855 24.268806 0.000004 -0.000001 0.000000 0.000000 0.000001 0.000000 0.000000 0.000001 -0.000000 0.000000 0.000000 -0.000000 0.000000 0.000000 -0.000000 0.000000 -0.000000 -0.000000 0.000000 0.000000 
